<svg id="Layer_1" data-name="Layer 1" xmlns="http://www.w3.org/2000/svg" xmlns:xlink="http://www.w3.org/1999/xlink" viewBox="0 0 300 75"><defs><style>.cls-1{fill:url(#linear-gradient);}.cls-2{fill:url(#linear-gradient-2);}.cls-3{font-size:75px;font-family:FranklinGothic-DemiItalic, Franklin Gothic Demi;font-weight:300;font-style:italic;}.cls-4{fill:url(#linear-gradient-3);}</style><linearGradient id="linear-gradient" x1="-34.1" y1="36.44" x2="-16.1" y2="36.44" gradientTransform="translate(251.1 3.06)" gradientUnits="userSpaceOnUse"><stop offset="0" stop-color="#fff"/><stop offset="1"/></linearGradient><linearGradient id="linear-gradient-2" x1="65" y1="38.5" x2="81" y2="38.5" gradientTransform="translate(-3)" xlink:href="#linear-gradient"/><linearGradient id="linear-gradient-3" x1="88" y1="38.5" x2="97" y2="38.5" gradientTransform="matrix(1, 0, 0, 1, 0, 0)" xlink:href="#linear-gradient"/></defs><path d="M260.36,44.57c-.8.82,1.07-1.22,1.3-1.41l.15-.14a13.46,13.46,0,0,1,1-1.11,10.32,10.32,0,0,1,1.92-1.56c-.08-.07-.17-.12-.25-.2l-.67-.66a14.86,14.86,0,0,1-1.5-1.38c-.65-.58-1.36-1.17-2-1.81l-.29-.3H213v9h46.94Z"/><path d="M258.81,46.45a9,9,0,0,1,1.55-1.88c-.8.82,1.07-1.22,1.3-1.41l.15-.14a13.46,13.46,0,0,1,1-1.11,10.32,10.32,0,0,1,1.92-1.56c-.08-.07-.17-.12-.25-.2l-.67-.66a14.86,14.86,0,0,1-1.5-1.38c-.65-.58-1.36-1.17-2-1.81s-1.25-1.29-1.88-1.93L233.91,58.91l6.37,6.37L258.55,47A5.4,5.4,0,0,1,258.81,46.45Z"/><path d="M259.35,45.67a13.16,13.16,0,0,1,1-1.1c-.8.82,1.07-1.22,1.3-1.41l.15-.14a13.46,13.46,0,0,1,1-1.11,9.85,9.85,0,0,1,1.8-1.48l.1-.1-.23-.18-.67-.66a14.86,14.86,0,0,1-1.5-1.38c-.65-.58-1.36-1.17-2-1.81-1.25-1.35-2.62-2.59-3.79-4a6.82,6.82,0,0,1-.77-1.18L240,15.31l-6.37,6.37,24.86,24.86Z"/><rect x="217" y="34" width="33" height="9" transform="translate(467 77) rotate(180)"/><rect class="cls-1" x="217" y="34" width="18" height="11"/><path d="M36.53,34a4.51,4.51,0,0,1-1.14,1.29,3.83,3.83,0,0,1-.28.29,5,5,0,0,1-.58.63,4.54,4.54,0,0,1-1.24,1.23A4.5,4.5,0,0,1,32,38.51v.2l.36.27a4.77,4.77,0,0,1,.71.63,4.88,4.88,0,0,1,.66.62A16.38,16.38,0,0,1,36.48,43H88V34Z"/><path d="M32.34,39a4.72,4.72,0,0,1,.67.59,4.77,4.77,0,0,1,.73.69,16.89,16.89,0,0,1,3,3.09l0,0h0l0,0a4.94,4.94,0,0,1,.59.71l.85.85L63.09,20.09l-6.37-6.37L36.65,33.8a4.73,4.73,0,0,1-1.26,1.49,3.83,3.83,0,0,1-.28.29,5.4,5.4,0,0,1-.56.61,4.46,4.46,0,0,1-1.29,1.27,4.38,4.38,0,0,1-1.39,1.12h0l.12.12A3.32,3.32,0,0,1,32.34,39Z"/><path d="M38.52,32.46l-6.36,6.36a5.59,5.59,0,0,1,.52.45,4.09,4.09,0,0,1,.33.28,4.53,4.53,0,0,1,.71.67,17.12,17.12,0,0,1,3,3.11l0,0h0l0,0a4.37,4.37,0,0,1,.49.56L57,63.69l6.37-6.37Z"/><rect x="49" y="34" width="27" height="9"/><rect class="cls-2" x="62" y="34" width="16" height="9" transform="translate(140 77) rotate(180)"/><text class="cls-3" transform="translate(71.48 62.51)">RMS</text><rect class="cls-4" x="88" y="34" width="9" height="9"/><rect x="73.76" y="31.31" width="19.87" height="9.41" transform="translate(34.23 112.53) rotate(-80.4)"/></svg>